# File created by Blade
# Date/Time:  Tue Apr 07 20:22:14 2015
# Frame Rate: 120.000 fps
#------------------------------------------------------
:FULLY-SPECIFIED
:DEGREES
2326
root 2.009888 32.792691 -10.630930 19.297993 3.584802 -1.297711
Spine -11.766008 -4.639209 -1.837817
Head -4.746286 -5.581541 3.313199
LeftShoulder -18.777439 44.689464 7.146984
LeftArm 47.012986 -7.192133 -92.494247
LeftForeArm 21.241207 -0.000000 99.840363
LeftHand 3.727919 0.000000 8.809210
LeftHandThumb1 -26.253704 0.000000 33.147579
RightShoulder -6.920903 -10.642110 -16.768691
RightArm 6.437600 8.366252 88.507766
RightForeArm -21.831021 -0.000000 68.723534
RightHand -1.595904 -0.000000 8.453373
RightHandThumb1 -24.326973 -0.000000 -32.862282
LeftUpLeg -24.281869 -7.356644 2.290396
LeftLeg 9.506158 -0.000000 -0.000000
LeftFoot -9.134514 11.873611 -14.180839
LeftToeBase -5.509378 -0.000000 0.000000
RightUpLeg -21.445788 -3.602855 1.067556
RightLeg 8.003243 -0.000000 -0.000000
RightFoot -10.744587 -6.567907 9.099353
RightToeBase 3.138378 -0.000000 -0.000000
2327
root 2.042643 32.788728 -10.663101 19.521580 3.591659 -1.308809
Spine -11.724427 -4.695221 -1.889812
Head -5.091576 -5.608445 3.456812
LeftShoulder -18.666617 44.690277 7.282505
LeftArm 47.092948 -7.412591 -92.636306
LeftForeArm 21.168080 0.000000 99.694989
LeftHand 3.825700 -0.000000 8.792599
LeftHandThumb1 -26.253704 0.000000 33.147579
RightShoulder -6.894903 -10.560218 -16.781332
RightArm 6.420193 8.520120 88.528987
RightForeArm -21.167193 -0.000000 67.488210
RightHand -1.180518 -0.000000 7.980421
RightHandThumb1 -24.326973 -0.000000 -32.862282
LeftUpLeg -24.636194 -7.422005 2.295136
LeftLeg 9.652971 -0.000000 -0.000000
LeftFoot -9.135205 11.950327 -14.099215
LeftToeBase -5.566192 -0.000000 0.000000
RightUpLeg -22.019274 -3.712874 1.068986
RightLeg 8.613713 -0.000000 -0.000000
RightFoot -10.919485 -6.470325 9.196453
RightToeBase 3.113737 -0.000000 -0.000000
2328
root 2.070264 32.786279 -10.696232 19.733349 3.629083 -1.370249
Spine -11.660100 -4.766555 -1.893564
Head -5.450497 -5.607187 3.618536
LeftShoulder -18.619064 44.789419 7.336017
LeftArm 47.315747 -7.596456 -92.734231
LeftForeArm 21.123233 -0.000000 99.557082
LeftHand 3.721663 -0.000000 8.945638
LeftHandThumb1 -26.253704 0.000000 33.147579
RightShoulder -6.867670 -10.461353 -16.770144
RightArm 6.399399 8.665936 88.547868
RightForeArm -20.297704 0.000000 66.248830
RightHand -0.836668 -0.000000 7.750781
RightHandThumb1 -24.326973 -0.000000 -32.862282
LeftUpLeg -24.990278 -7.464410 2.357062
LeftLeg 9.805304 -0.000000 -0.000000
LeftFoot -9.118890 11.986952 -14.034789
LeftToeBase -5.652892 -0.000000 0.000000
RightUpLeg -22.477468 -3.642429 1.062055
RightLeg 9.009697 -0.000000 -0.000000
RightFoot -11.003213 -6.509212 9.408252
RightToeBase 3.157501 -0.000000 -0.000000
2329
root 2.099126 32.780983 -10.727097 19.920578 3.613091 -1.374201
Spine -11.579005 -4.841127 -1.987328
Head -5.772253 -5.602519 3.807882
LeftShoulder -18.505414 44.756475 7.507152
LeftArm 47.355404 -7.824774 -92.860704
LeftForeArm 21.100672 -0.000000 99.422905
LeftHand 3.744535 -0.000000 8.939002
LeftHandThumb1 -26.253704 0.000000 33.147579
RightShoulder -6.798714 -10.369866 -16.764285
RightArm 6.388429 8.796308 88.588452
RightForeArm -19.525521 -0.000000 64.958050
RightHand -0.546724 -0.000000 7.199024
RightHandThumb1 -24.326973 -0.000000 -32.862282
LeftUpLeg -25.289020 -7.444123 2.324150
LeftLeg 9.929861 -0.000000 -0.000000
LeftFoot -9.108021 12.000234 -13.934500
LeftToeBase -5.671889 -0.000000 0.000000
RightUpLeg -23.025827 -3.722083 1.046007
RightLeg 9.641041 -0.000000 -0.000000
RightFoot -11.177665 -6.381339 9.560141
RightToeBase 3.080877 -0.000000 -0.000000
2330
root 2.125833 32.776160 -10.760781 20.147316 3.629060 -1.426329
Spine -11.528404 -4.870826 -2.035267
Head -6.116156 -5.633709 4.021725
LeftShoulder -18.292086 44.688810 7.769934
LeftArm 47.353284 -8.043001 -92.996021
LeftForeArm 21.102583 -0.000000 99.310913
LeftHand 3.761629 -0.000000 8.853568
LeftHandThumb1 -26.253704 0.000000 33.147579
RightShoulder -6.807342 -10.318622 -16.735393
RightArm 6.425471 8.871113 88.600850
RightForeArm -18.707785 -0.000000 63.637171
RightHand -0.228667 -0.000000 6.775690
RightHandThumb1 -24.326973 -0.000000 -32.862282
LeftUpLeg -25.640669 -7.453046 2.366711
LeftLeg 10.058304 -0.000000 -0.000000
LeftFoot -9.115019 12.037190 -13.850937
LeftToeBase -5.677407 -0.000000 0.000000
RightUpLeg -23.563986 -3.744069 1.049573
RightLeg 10.156654 -0.000000 -0.000000
RightFoot -11.256936 -6.229848 9.758647
RightToeBase 2.959348 -0.000000 -0.000000
2331
root 2.151498 32.771469 -10.792487 20.354163 3.634567 -1.472342
Spine -11.462462 -4.952207 -2.083181
Head -6.430988 -5.610904 4.216576
LeftShoulder -18.162955 44.624312 7.959570
LeftArm 47.362276 -8.249097 -93.091156
LeftForeArm 21.077706 -0.000000 99.184154
LeftHand 3.716834 0.000000 8.991587
LeftHandThumb1 -26.253704 0.000000 33.147579
RightShoulder -6.745664 -10.184621 -16.716200
RightArm 6.391504 8.961667 88.620915
RightForeArm -17.984282 -0.000000 62.326954
RightHand 0.130825 -0.000000 6.395532
RightHandThumb1 -24.326973 -0.000000 -32.862282
LeftUpLeg -25.969611 -7.412537 2.383613
LeftLeg 10.190243 -0.000000 -0.000000
LeftFoot -9.107141 12.028789 -13.743791
LeftToeBase -5.808477 -0.000000 0.000000
RightUpLeg -24.027881 -3.602973 0.995981
RightLeg 10.571489 -0.000000 -0.000000
RightFoot -11.314929 -6.247966 9.947037
RightToeBase 2.946401 -0.000000 -0.000000
2332
root 2.184691 32.765537 -10.824081 20.582764 3.621095 -1.491426
Spine -11.430901 -5.028532 -2.146067
Head -6.720593 -5.603200 4.402926
LeftShoulder -18.040400 44.602926 8.137561
LeftArm 47.396682 -8.447859 -93.227871
LeftForeArm 21.146244 -0.000000 99.050008
LeftHand 3.738304 0.000000 9.090618
LeftHandThumb1 -26.253704 0.000000 33.147579
RightShoulder -6.686087 -10.112795 -16.700577
RightArm 6.414662 9.002483 88.614365
RightForeArm -17.244216 0.000000 61.008636
RightHand 0.279904 -0.000000 5.917177
RightHandThumb1 -24.326973 -0.000000 -32.862282
LeftUpLeg -26.341284 -7.321224 2.331235
LeftLeg 10.378267 -0.000000 -0.000000
LeftFoot -9.105676 12.026107 -13.590185
LeftToeBase -6.040929 -0.000000 0.000000
RightUpLeg -24.669363 -3.637787 0.984934
RightLeg 11.289538 -0.000000 -0.000000
RightFoot -11.437880 -6.256557 10.001643
RightToeBase 2.620782 -0.000000 -0.000000
2333
root 2.215337 32.758816 -10.856966 20.803377 3.628819 -1.521574
Spine -11.385575 -5.102447 -2.201129
Head -7.001254 -5.575466 4.598452
LeftShoulder -17.909765 44.604455 8.313725
LeftArm 47.476810 -8.636303 -93.359447
LeftForeArm 21.163352 -0.000000 98.933694
LeftHand 3.786076 -0.000000 9.068388
LeftHandThumb1 -26.253704 0.000000 33.147579
RightShoulder -6.621028 -10.028814 -16.690939
RightArm 6.403088 9.054513 88.612276
RightForeArm -16.530552 -0.000000 59.706804
RightHand 0.620718 -0.000000 5.731827
RightHandThumb1 -24.326973 -0.000000 -32.862282
LeftUpLeg -26.704555 -7.262639 2.308597
LeftLeg 10.551708 -0.000000 -0.000000
LeftFoot -9.116716 12.007847 -13.475675
LeftToeBase -6.046786 -0.000000 0.000000
RightUpLeg -25.227081 -3.577802 0.941807
RightLeg 11.858799 -0.000000 -0.000000
RightFoot -11.514818 -6.243707 10.104786
RightToeBase 2.523383 -0.000000 -0.000000
2334
root 2.253017 32.753740 -10.890329 21.058560 3.597016 -1.478111
Spine -11.372766 -5.171234 -2.332983
Head -7.275959 -5.589934 4.788934
LeftShoulder -17.770122 44.518055 8.501442
LeftArm 47.470984 -8.819378 -93.432085
LeftForeArm 21.215189 -0.000000 98.812583
LeftHand 3.735912 0.000000 9.195057
LeftHandThumb1 -26.253704 0.000000 33.147579
RightShoulder -6.591207 -9.935550 -16.658716
RightArm 6.404744 9.074218 88.601191
RightForeArm -16.011367 0.000000 58.416807
RightHand 0.808329 -0.000000 5.393903
RightHandThumb1 -24.326973 -0.000000 -32.862282
LeftUpLeg -26.961917 -7.591146 2.366383
LeftLeg 10.415592 -0.000000 -0.000000
LeftFoot -9.086084 12.326880 -13.512023
LeftToeBase -5.868117 -0.000000 0.000000
RightUpLeg -25.855750 -3.551313 0.827016
RightLeg 12.496697 -0.000000 -0.000000
RightFoot -11.599593 -6.221765 10.172663
RightToeBase 2.370119 -0.000000 -0.000000
2335
root 2.292763 32.747504 -10.919387 21.259178 3.588961 -1.451596
Spine -11.304849 -5.251975 -2.435545
Head -7.566194 -5.604971 4.983561
LeftShoulder -17.668513 44.511512 8.626023
LeftArm 47.550432 -8.992217 -93.542871
LeftForeArm 21.207098 -0.000000 98.709317
LeftHand 3.791521 -0.000000 9.240485
LeftHandThumb1 -26.253704 0.000000 33.147579
RightShoulder -6.546467 -9.893821 -16.615757
RightArm 6.444634 9.083096 88.562147
RightForeArm -15.500927 -0.000000 57.144540
RightHand 1.022778 -0.000000 5.071892
RightHandThumb1 -24.326973 -0.000000 -32.862282
LeftUpLeg -27.196758 -7.761811 2.365996
LeftLeg 10.373662 -0.000000 -0.000000
LeftFoot -9.075615 12.478652 -13.508568
LeftToeBase -5.930166 -0.000000 0.000000
RightUpLeg -26.430332 -3.542847 0.726342
RightLeg 13.157047 -0.000000 -0.000000
RightFoot -11.689189 -6.184848 10.250352
RightToeBase 2.218140 -0.000000 -0.000000
2336
root 2.329863 32.739934 -10.950517 21.475201 3.538242 -1.450885
Spine -11.263512 -5.282560 -2.530414
Head -7.822379 -5.614585 5.153787
LeftShoulder -17.525205 44.459453 8.799792
LeftArm 47.590490 -9.170411 -93.634949
LeftForeArm 21.223696 0.000000 98.601654
LeftHand 3.786878 -0.000000 9.293240
LeftHandThumb1 -26.253704 0.000000 33.147579
RightShoulder -6.507831 -9.804759 -16.585021
RightArm 6.406718 9.051712 88.512553
RightForeArm -15.062808 -0.000000 55.930625
RightHand 1.127607 -0.000000 4.890571
RightHandThumb1 -24.326973 -0.000000 -32.862282
LeftUpLeg -27.467568 -7.740789 2.322852
LeftLeg 10.393179 -0.000000 -0.000000
LeftFoot -9.052454 12.499612 -13.445550
LeftToeBase -5.948319 -0.000000 0.000000
RightUpLeg -27.023977 -3.434643 0.622434
RightLeg 13.804861 -0.000000 -0.000000
RightFoot -11.782103 -6.204999 10.369083
RightToeBase 2.078734 -0.000000 -0.000000
2337
root 2.359819 32.730629 -10.978433 21.654231 3.473186 -1.510353
Spine -11.187556 -5.277841 -2.585972
Head -8.097772 -5.737258 5.422651
LeftShoulder -17.402059 44.413493 8.969235
LeftArm 47.644054 -9.338772 -93.716303
LeftForeArm 21.180381 -0.000000 98.488133
LeftHand 3.814533 -0.000000 9.463888
LeftHandThumb1 -26.253704 0.000000 33.147579
RightShoulder -6.466450 -9.725428 -16.557659
RightArm 6.376032 9.024485 88.486453
RightForeArm -14.611883 0.000000 54.715184
RightHand 1.222604 -0.000000 4.633303
RightHandThumb1 -24.326973 -0.000000 -32.862282
LeftUpLeg -27.742447 -7.538319 2.262733
LeftLeg 10.532744 -0.000000 -0.000000
LeftFoot -9.100805 12.406000 -13.312699
LeftToeBase -5.929243 -0.000000 0.000000
RightUpLeg -27.614725 -3.303210 0.586452
RightLeg 14.526706 -0.000000 -0.000000
RightFoot -11.861044 -6.214100 10.457266
RightToeBase 1.895166 -0.000000 -0.000000
